<?xml version="1.0" encoding="utf-8"?>
<!-- Generator: Adobe Illustrator 25.0.0, SVG Export Plug-In . SVG Version: 6.00 Build 0)  -->
<svg version="1.1" id="Layer_1" xmlns="http://www.w3.org/2000/svg" xmlns:xlink="http://www.w3.org/1999/xlink" x="0px" y="0px"
	 viewBox="0 0 88.3 34" style="enable-background:new 0 0 88.3 34;" xml:space="preserve">
<style type="text/css">
	.st0{fill:#37EF44;}
</style>
<path class="st0" d="M64.6,9.6l-5.3-3.1c-0.5-0.3-1.1-0.3-1.5,0l-3.1,1.8c-1,0.6-2.3-0.1-2.3-1.3v0c0-0.5,0.3-1,0.8-1.3L57.7,3
	c0.5-0.3,1.1-0.3,1.5,0l4.6,2.6c0.5,0.3,0.8,0.8,0.8,1.3L64.6,9.6L64.6,9.6z"/>
<path d="M0,11.5h3.7v8.9c0,2.3,1.7,3.4,3.3,3.4c1.6,0,3.3-1.2,3.3-3.5v-8.9h3.7v9.2c0,2.1-0.7,3.8-2,4.9c-1.3,1.1-3,1.7-5.1,1.7
	c-2,0-3.7-0.5-5-1.7c-1.3-1.1-2-2.7-2-4.8C0,20.8,0,11.5,0,11.5z M45.9,22.6c-1.1,1-2.4,1.5-3.8,1.5c-2.6,0-4.4-1.5-4.6-3.8h11.9
	c0,0,0.1-0.8,0.1-1.5c0-2.2-0.7-4-2.1-5.5c-1.4-1.5-3.2-2.2-5.4-2.2c-2.3,0-4.3,0.7-5.8,2.2c-1.5,1.5-2.2,3.4-2.2,5.9v0.1
	c0,2.4,0.8,4.3,2.2,5.7c1.5,1.4,3.5,2.2,5.9,2.2c2.8,0,5-1.1,6.7-3C48.6,24.2,45.9,22.6,45.9,22.6z M38.9,15.2c0.8-0.6,1.8-1,3-1
	c1.1,0,1.9,0.3,2.7,1c0.7,0.6,1.1,1.4,1.2,2.2h-8.2C37.6,16.5,38.1,15.8,38.9,15.2L38.9,15.2z M80.8,28.8c-1.5,3.5-3.1,4.7-5.5,4.7
	h-1.7v-3.3H75c0.8,0,1.6-0.3,2.3-2l0.7-1.7l-6.3-15.5h3.7l4.5,11.2l4.6-11.2h3.7L80.8,28.8L80.8,28.8z M28.4,5.6v7.3
	c-1.2-1.1-3.1-1.7-4.9-1.7c-2.2,0-4,0.8-5.5,2.3c-1.5,1.5-2.2,3.4-2.2,5.7c0,2.3,0.7,4.2,2.2,5.7c1.5,1.5,3.3,2.3,5.5,2.3
	c2.5,0,4.1-1,4.9-1.7v1.4H32V5.7L28.4,5.6L28.4,5.6z M27.3,22.5c-0.9,0.9-2,1.3-3.3,1.3s-2.4-0.5-3.3-1.3c-0.9-0.9-1.3-2-1.3-3.3
	c0-1.3,0.4-2.5,1.3-3.3c0.9-0.9,1.9-1.3,3.3-1.3s2.4,0.5,3.3,1.3c0.9,0.9,1.4,2,1.4,3.3C28.7,20.5,28.2,21.6,27.3,22.5z M65,6.2v7.3
	c-1.2-1.1-3.1-1.7-4.9-1.7c-2.2,0-4,0.8-5.5,2.3c-1.5,1.5-2.2,3.4-2.2,5.7c0,2.3,0.7,4.2,2.2,5.7c1.5,1.5,3.3,2.3,5.5,2.3
	c2.5,0,4.1-1,4.9-1.7v1.4h3.7V6.2L65,6.2L65,6.2z M64.1,22.9c-0.9,0.9-2,1.3-3.3,1.3c-1.3,0-2.4-0.5-3.3-1.3c-0.8-0.9-1.3-2-1.3-3.3
	c0-1.3,0.4-2.5,1.3-3.3c0.9-0.9,1.9-1.3,3.3-1.3c1.3,0,2.4,0.5,3.3,1.3c0.9,0.9,1.4,2,1.4,3.3C65.4,20.9,65,22.1,64.1,22.9z"/>
</svg>
